<mxfile host="app.diagrams.net" modified="2022-11-25T19:38:35.475Z" agent="5.0 (X11; Linux x86_64) AppleWebKit/537.36 (KHTML, like Gecko) Chrome/107.0.0.0 Safari/537.36" version="20.6.0" etag="10QXexf0xI6NgUFCT_Rv" type="github">
  <diagram id="4rl-kDWwsTP7VsaE1qIf" name="Page-1">
    <mxGraphModel dx="1902" dy="1010" grid="1" gridSize="10" guides="1" tooltips="1" connect="1" arrows="1" fold="1" page="1" pageScale="1" pageWidth="850" pageHeight="1100" math="0" shadow="0">
      <root>
        <mxCell id="0" />
        <mxCell id="1" parent="0" />
        <mxCell id="NxydhZxei_qZ2f8yEkNf-1" value="portal-demo.mharikmert.dev" style="text;html=1;strokeColor=none;fillColor=none;align=center;verticalAlign=middle;whiteSpace=wrap;rounded=0;" vertex="1" parent="1">
          <mxGeometry x="610.25" y="350" width="154.75" height="20" as="geometry" />
        </mxCell>
        <mxCell id="NxydhZxei_qZ2f8yEkNf-2" value="blog.mharikmert.dev" style="text;html=1;strokeColor=none;fillColor=none;align=center;verticalAlign=middle;whiteSpace=wrap;rounded=0;" vertex="1" parent="1">
          <mxGeometry x="485" y="350" width="110" height="20" as="geometry" />
        </mxCell>
        <mxCell id="NxydhZxei_qZ2f8yEkNf-3" value="mharikmert.dev" style="text;html=1;strokeColor=none;fillColor=none;align=center;verticalAlign=middle;whiteSpace=wrap;rounded=0;" vertex="1" parent="1">
          <mxGeometry x="375" y="350" width="90" height="20" as="geometry" />
        </mxCell>
        <mxCell id="NxydhZxei_qZ2f8yEkNf-4" value="portal-backend.mharikmert.dev" style="text;html=1;strokeColor=none;fillColor=none;align=center;verticalAlign=middle;whiteSpace=wrap;rounded=0;" vertex="1" parent="1">
          <mxGeometry x="775" y="350" width="170" height="20" as="geometry" />
        </mxCell>
        <mxCell id="NxydhZxei_qZ2f8yEkNf-5" value="" style="rounded=1;whiteSpace=wrap;html=1;fillColor=default;" vertex="1" parent="1">
          <mxGeometry x="270" y="450" width="750" height="410" as="geometry" />
        </mxCell>
        <mxCell id="NxydhZxei_qZ2f8yEkNf-6" value="" style="shape=trapezoid;perimeter=trapezoidPerimeter;whiteSpace=wrap;html=1;fixedSize=1;size=60;fillColor=#ffe6cc;strokeColor=#d79b00;" vertex="1" parent="1">
          <mxGeometry x="285" y="540" width="720" height="40" as="geometry" />
        </mxCell>
        <mxCell id="NxydhZxei_qZ2f8yEkNf-7" value="INGRESS" style="text;html=1;strokeColor=none;fillColor=none;align=center;verticalAlign=middle;whiteSpace=wrap;rounded=0;" vertex="1" parent="1">
          <mxGeometry x="615" y="545" width="60" height="30" as="geometry" />
        </mxCell>
        <mxCell id="NxydhZxei_qZ2f8yEkNf-8" value="" style="triangle;whiteSpace=wrap;html=1;direction=north;fillColor=#ffe6cc;strokeColor=#d79b00;" vertex="1" parent="1">
          <mxGeometry x="610" y="480" width="70" height="50" as="geometry" />
        </mxCell>
        <mxCell id="NxydhZxei_qZ2f8yEkNf-9" value="nginx-ingress-controller (Load Balancer)" style="text;html=1;align=center;verticalAlign=middle;resizable=0;points=[];autosize=1;strokeColor=none;fillColor=none;" vertex="1" parent="1">
          <mxGeometry x="665" y="490" width="240" height="30" as="geometry" />
        </mxCell>
        <mxCell id="NxydhZxei_qZ2f8yEkNf-10" value="" style="endArrow=none;dashed=1;html=1;strokeWidth=1;rounded=0;entryX=0.5;entryY=0;entryDx=0;entryDy=0;exitX=1;exitY=0.5;exitDx=0;exitDy=0;" edge="1" parent="1" source="NxydhZxei_qZ2f8yEkNf-8" target="NxydhZxei_qZ2f8yEkNf-5">
          <mxGeometry width="50" height="50" relative="1" as="geometry">
            <mxPoint x="505" y="600" as="sourcePoint" />
            <mxPoint x="555" y="550" as="targetPoint" />
          </mxGeometry>
        </mxCell>
        <mxCell id="NxydhZxei_qZ2f8yEkNf-11" value="30080,30443" style="rounded=0;whiteSpace=wrap;html=1;strokeColor=#6c8ebf;fillColor=#dae8fc;" vertex="1" parent="1">
          <mxGeometry x="582.5" y="430" width="125" height="20" as="geometry" />
        </mxCell>
        <mxCell id="NxydhZxei_qZ2f8yEkNf-12" value="(80--&amp;gt;30080/TCP, 443--&amp;gt;30443/TCP)" style="text;html=1;align=center;verticalAlign=middle;resizable=0;points=[];autosize=1;strokeColor=none;fillColor=none;" vertex="1" parent="1">
          <mxGeometry x="700" y="425" width="220" height="30" as="geometry" />
        </mxCell>
        <mxCell id="NxydhZxei_qZ2f8yEkNf-13" value="" style="endArrow=none;dashed=1;html=1;rounded=0;entryX=0.5;entryY=1;entryDx=0;entryDy=0;exitX=0.5;exitY=0;exitDx=0;exitDy=0;" edge="1" parent="1" source="NxydhZxei_qZ2f8yEkNf-11" target="NxydhZxei_qZ2f8yEkNf-4">
          <mxGeometry width="50" height="50" relative="1" as="geometry">
            <mxPoint x="775" y="630" as="sourcePoint" />
            <mxPoint x="825" y="580" as="targetPoint" />
          </mxGeometry>
        </mxCell>
        <mxCell id="NxydhZxei_qZ2f8yEkNf-14" value="" style="endArrow=none;dashed=1;html=1;rounded=0;entryX=0.5;entryY=1;entryDx=0;entryDy=0;" edge="1" parent="1" target="NxydhZxei_qZ2f8yEkNf-1">
          <mxGeometry width="50" height="50" relative="1" as="geometry">
            <mxPoint x="645" y="430" as="sourcePoint" />
            <mxPoint x="870" y="380" as="targetPoint" />
          </mxGeometry>
        </mxCell>
        <mxCell id="NxydhZxei_qZ2f8yEkNf-15" value="" style="endArrow=none;dashed=1;html=1;rounded=0;exitX=0.5;exitY=0;exitDx=0;exitDy=0;entryX=0.5;entryY=1;entryDx=0;entryDy=0;" edge="1" parent="1" source="NxydhZxei_qZ2f8yEkNf-11" target="NxydhZxei_qZ2f8yEkNf-3">
          <mxGeometry width="50" height="50" relative="1" as="geometry">
            <mxPoint x="655" y="440" as="sourcePoint" />
            <mxPoint x="505" y="380" as="targetPoint" />
          </mxGeometry>
        </mxCell>
        <mxCell id="NxydhZxei_qZ2f8yEkNf-16" value="" style="endArrow=none;dashed=1;html=1;rounded=0;entryX=0.5;entryY=1;entryDx=0;entryDy=0;exitX=0.5;exitY=0;exitDx=0;exitDy=0;" edge="1" parent="1" source="NxydhZxei_qZ2f8yEkNf-11" target="NxydhZxei_qZ2f8yEkNf-2">
          <mxGeometry width="50" height="50" relative="1" as="geometry">
            <mxPoint x="665" y="450" as="sourcePoint" />
            <mxPoint x="880" y="390" as="targetPoint" />
          </mxGeometry>
        </mxCell>
        <mxCell id="NxydhZxei_qZ2f8yEkNf-17" value="" style="endArrow=classic;html=1;rounded=0;exitX=0.091;exitY=1.003;exitDx=0;exitDy=0;exitPerimeter=0;dashed=1;entryX=1;entryY=0.5;entryDx=0;entryDy=0;" edge="1" parent="1" source="NxydhZxei_qZ2f8yEkNf-6" target="NxydhZxei_qZ2f8yEkNf-19">
          <mxGeometry width="50" height="50" relative="1" as="geometry">
            <mxPoint x="615" y="590" as="sourcePoint" />
            <mxPoint x="350" y="640" as="targetPoint" />
          </mxGeometry>
        </mxCell>
        <mxCell id="NxydhZxei_qZ2f8yEkNf-18" style="edgeStyle=orthogonalEdgeStyle;orthogonalLoop=1;jettySize=auto;html=1;exitX=0;exitY=0.5;exitDx=0;exitDy=0;entryX=0.5;entryY=0;entryDx=0;entryDy=0;strokeColor=default;fontSize=8;rounded=1;endArrow=none;endFill=0;dashed=1;" edge="1" parent="1" source="NxydhZxei_qZ2f8yEkNf-19" target="NxydhZxei_qZ2f8yEkNf-21">
          <mxGeometry relative="1" as="geometry" />
        </mxCell>
        <mxCell id="NxydhZxei_qZ2f8yEkNf-19" value="" style="triangle;whiteSpace=wrap;html=1;direction=north;fillColor=#dae8fc;strokeColor=#6c8ebf;" vertex="1" parent="1">
          <mxGeometry x="335" y="650" width="30" height="20" as="geometry" />
        </mxCell>
        <mxCell id="NxydhZxei_qZ2f8yEkNf-20" value="home-svc" style="text;html=1;strokeColor=none;fillColor=none;align=center;verticalAlign=middle;whiteSpace=wrap;rounded=0;" vertex="1" parent="1">
          <mxGeometry x="355" y="640" width="80" height="30" as="geometry" />
        </mxCell>
        <mxCell id="NxydhZxei_qZ2f8yEkNf-21" value="" style="rounded=1;whiteSpace=wrap;html=1;fontSize=8;fillColor=default;" vertex="1" parent="1">
          <mxGeometry x="312.5" y="730" width="75" height="30" as="geometry" />
        </mxCell>
        <mxCell id="NxydhZxei_qZ2f8yEkNf-22" value="home-deploy" style="text;html=1;strokeColor=none;fillColor=none;align=center;verticalAlign=middle;whiteSpace=wrap;rounded=0;" vertex="1" parent="1">
          <mxGeometry x="307.5" y="760" width="80" height="30" as="geometry" />
        </mxCell>
        <mxCell id="NxydhZxei_qZ2f8yEkNf-23" value="&lt;font size=&quot;1&quot;&gt;jekyll&lt;/font&gt;" style="ellipse;whiteSpace=wrap;html=1;aspect=fixed;fillColor=#dae8fc;strokeColor=#6c8ebf;" vertex="1" parent="1">
          <mxGeometry x="315" y="730" width="30" height="30" as="geometry" />
        </mxCell>
        <mxCell id="NxydhZxei_qZ2f8yEkNf-24" value="" style="endArrow=classic;html=1;rounded=0;exitX=0.091;exitY=1.003;exitDx=0;exitDy=0;exitPerimeter=0;dashed=1;entryX=1;entryY=0.5;entryDx=0;entryDy=0;" edge="1" parent="1" target="NxydhZxei_qZ2f8yEkNf-25">
          <mxGeometry width="50" height="50" relative="1" as="geometry">
            <mxPoint x="523.0200000000004" y="580.1200000000001" as="sourcePoint" />
            <mxPoint x="522.5" y="640" as="targetPoint" />
          </mxGeometry>
        </mxCell>
        <mxCell id="NxydhZxei_qZ2f8yEkNf-25" value="" style="triangle;whiteSpace=wrap;html=1;direction=north;fillColor=#f0a30a;strokeColor=#BD7000;fontColor=#000000;" vertex="1" parent="1">
          <mxGeometry x="507.5" y="650" width="30" height="20" as="geometry" />
        </mxCell>
        <mxCell id="NxydhZxei_qZ2f8yEkNf-26" style="edgeStyle=orthogonalEdgeStyle;orthogonalLoop=1;jettySize=auto;html=1;exitX=0;exitY=0.5;exitDx=0;exitDy=0;entryX=0.5;entryY=0;entryDx=0;entryDy=0;strokeColor=default;fontSize=8;rounded=1;endArrow=none;endFill=0;dashed=1;" edge="1" parent="1" source="NxydhZxei_qZ2f8yEkNf-25" target="NxydhZxei_qZ2f8yEkNf-29">
          <mxGeometry relative="1" as="geometry" />
        </mxCell>
        <mxCell id="NxydhZxei_qZ2f8yEkNf-27" value="" style="ellipse;whiteSpace=wrap;html=1;aspect=fixed;fillColor=#fff2cc;strokeColor=#d6b656;" vertex="1" parent="1">
          <mxGeometry x="497.5" y="735" width="20" height="20" as="geometry" />
        </mxCell>
        <mxCell id="NxydhZxei_qZ2f8yEkNf-28" value="" style="ellipse;whiteSpace=wrap;html=1;aspect=fixed;fillColor=#fff2cc;strokeColor=#d6b656;" vertex="1" parent="1">
          <mxGeometry x="527.5" y="735" width="20" height="20" as="geometry" />
        </mxCell>
        <mxCell id="NxydhZxei_qZ2f8yEkNf-29" value="" style="rounded=1;whiteSpace=wrap;html=1;fontSize=8;fillColor=default;" vertex="1" parent="1">
          <mxGeometry x="485" y="730" width="75" height="30" as="geometry" />
        </mxCell>
        <mxCell id="NxydhZxei_qZ2f8yEkNf-30" value="blog-deploy" style="text;html=1;strokeColor=none;fillColor=none;align=center;verticalAlign=middle;whiteSpace=wrap;rounded=0;" vertex="1" parent="1">
          <mxGeometry x="482.5" y="760" width="80" height="30" as="geometry" />
        </mxCell>
        <mxCell id="NxydhZxei_qZ2f8yEkNf-31" value="blog-svc" style="text;html=1;strokeColor=none;fillColor=none;align=center;verticalAlign=middle;whiteSpace=wrap;rounded=0;" vertex="1" parent="1">
          <mxGeometry x="527.5" y="640" width="80" height="30" as="geometry" />
        </mxCell>
        <mxCell id="NxydhZxei_qZ2f8yEkNf-32" value="nginx" style="ellipse;whiteSpace=wrap;html=1;aspect=fixed;fillColor=#f0a30a;strokeColor=#BD7000;fontColor=#000000;" vertex="1" parent="1">
          <mxGeometry x="490" y="730" width="30" height="30" as="geometry" />
        </mxCell>
        <mxCell id="NxydhZxei_qZ2f8yEkNf-33" value="" style="endArrow=classic;html=1;rounded=0;exitX=0.578;exitY=0.984;exitDx=0;exitDy=0;exitPerimeter=0;dashed=1;entryX=1;entryY=0.5;entryDx=0;entryDy=0;" edge="1" parent="1" source="NxydhZxei_qZ2f8yEkNf-6" target="NxydhZxei_qZ2f8yEkNf-34">
          <mxGeometry width="50" height="50" relative="1" as="geometry">
            <mxPoint x="683.0200000000002" y="580.1200000000001" as="sourcePoint" />
            <mxPoint x="682.5" y="640" as="targetPoint" />
          </mxGeometry>
        </mxCell>
        <mxCell id="NxydhZxei_qZ2f8yEkNf-34" value="" style="triangle;whiteSpace=wrap;html=1;direction=north;fillColor=#1ba1e2;strokeColor=#006EAF;fontColor=#ffffff;" vertex="1" parent="1">
          <mxGeometry x="685" y="650" width="30" height="20" as="geometry" />
        </mxCell>
        <mxCell id="NxydhZxei_qZ2f8yEkNf-35" value="portal-frontend-service" style="text;html=1;strokeColor=none;fillColor=none;align=center;verticalAlign=middle;whiteSpace=wrap;rounded=0;" vertex="1" parent="1">
          <mxGeometry x="707.5" y="640" width="130" height="30" as="geometry" />
        </mxCell>
        <mxCell id="NxydhZxei_qZ2f8yEkNf-36" style="edgeStyle=orthogonalEdgeStyle;orthogonalLoop=1;jettySize=auto;html=1;exitX=0;exitY=0.5;exitDx=0;exitDy=0;entryX=0.5;entryY=0;entryDx=0;entryDy=0;strokeColor=default;fontSize=8;rounded=1;endArrow=none;endFill=0;dashed=1;" edge="1" parent="1" source="NxydhZxei_qZ2f8yEkNf-34" target="NxydhZxei_qZ2f8yEkNf-38">
          <mxGeometry relative="1" as="geometry">
            <Array as="points">
              <mxPoint x="700" y="670" />
            </Array>
          </mxGeometry>
        </mxCell>
        <mxCell id="NxydhZxei_qZ2f8yEkNf-37" value="" style="ellipse;whiteSpace=wrap;html=1;aspect=fixed;fillColor=#fff2cc;strokeColor=#d6b656;" vertex="1" parent="1">
          <mxGeometry x="657.5" y="735" width="20" height="20" as="geometry" />
        </mxCell>
        <mxCell id="NxydhZxei_qZ2f8yEkNf-38" value="" style="rounded=1;whiteSpace=wrap;html=1;fontSize=8;fillColor=default;" vertex="1" parent="1">
          <mxGeometry x="645" y="730" width="110" height="30" as="geometry" />
        </mxCell>
        <mxCell id="NxydhZxei_qZ2f8yEkNf-39" value="portal-frontend-deploy" style="text;html=1;strokeColor=none;fillColor=none;align=center;verticalAlign=middle;whiteSpace=wrap;rounded=0;" vertex="1" parent="1">
          <mxGeometry x="643.75" y="760" width="121.25" height="30" as="geometry" />
        </mxCell>
        <mxCell id="NxydhZxei_qZ2f8yEkNf-40" value="" style="endArrow=classic;html=1;rounded=0;exitX=0.091;exitY=1.003;exitDx=0;exitDy=0;exitPerimeter=0;dashed=1;entryX=1;entryY=0.5;entryDx=0;entryDy=0;" edge="1" parent="1" target="NxydhZxei_qZ2f8yEkNf-41">
          <mxGeometry width="50" height="50" relative="1" as="geometry">
            <mxPoint x="853.0200000000004" y="580.1200000000001" as="sourcePoint" />
            <mxPoint x="852.5" y="640" as="targetPoint" />
          </mxGeometry>
        </mxCell>
        <mxCell id="NxydhZxei_qZ2f8yEkNf-41" value="" style="triangle;whiteSpace=wrap;html=1;direction=north;fillColor=#60a917;strokeColor=#2D7600;fontColor=#ffffff;" vertex="1" parent="1">
          <mxGeometry x="837.5" y="650" width="30" height="20" as="geometry" />
        </mxCell>
        <mxCell id="NxydhZxei_qZ2f8yEkNf-42" value="portal-backend-service" style="text;html=1;strokeColor=none;fillColor=none;align=center;verticalAlign=middle;whiteSpace=wrap;rounded=0;" vertex="1" parent="1">
          <mxGeometry x="867.5" y="640" width="127.5" height="30" as="geometry" />
        </mxCell>
        <mxCell id="NxydhZxei_qZ2f8yEkNf-43" style="edgeStyle=orthogonalEdgeStyle;orthogonalLoop=1;jettySize=auto;html=1;exitX=0;exitY=0.5;exitDx=0;exitDy=0;entryX=0.5;entryY=0;entryDx=0;entryDy=0;strokeColor=default;fontSize=8;rounded=1;endArrow=none;endFill=0;dashed=1;" edge="1" parent="1" source="NxydhZxei_qZ2f8yEkNf-41">
          <mxGeometry relative="1" as="geometry">
            <mxPoint x="852.5" y="730" as="targetPoint" />
          </mxGeometry>
        </mxCell>
        <mxCell id="NxydhZxei_qZ2f8yEkNf-44" value="portal-backend-deploy" style="text;html=1;strokeColor=none;fillColor=none;align=center;verticalAlign=middle;whiteSpace=wrap;rounded=0;" vertex="1" parent="1">
          <mxGeometry x="803.75" y="760" width="121.25" height="30" as="geometry" />
        </mxCell>
        <mxCell id="NxydhZxei_qZ2f8yEkNf-45" value="nginx" style="ellipse;whiteSpace=wrap;html=1;aspect=fixed;fillColor=#1ba1e2;strokeColor=#006EAF;fontColor=#ffffff;" vertex="1" parent="1">
          <mxGeometry x="650" y="730" width="30" height="30" as="geometry" />
        </mxCell>
        <mxCell id="NxydhZxei_qZ2f8yEkNf-46" value="&lt;span style=&quot;font-size: x-small;&quot;&gt;jekyll&lt;/span&gt;" style="ellipse;whiteSpace=wrap;html=1;aspect=fixed;fillColor=#dae8fc;strokeColor=#6c8ebf;" vertex="1" parent="1">
          <mxGeometry x="355" y="730" width="30" height="30" as="geometry" />
        </mxCell>
        <mxCell id="NxydhZxei_qZ2f8yEkNf-47" value="nginx" style="ellipse;whiteSpace=wrap;html=1;aspect=fixed;fillColor=#f0a30a;strokeColor=#BD7000;fontColor=#000000;" vertex="1" parent="1">
          <mxGeometry x="525" y="730" width="30" height="30" as="geometry" />
        </mxCell>
        <mxCell id="NxydhZxei_qZ2f8yEkNf-48" value="" style="rounded=1;whiteSpace=wrap;html=1;fontSize=8;fillColor=default;" vertex="1" parent="1">
          <mxGeometry x="797.5" y="730" width="110" height="30" as="geometry" />
        </mxCell>
        <mxCell id="NxydhZxei_qZ2f8yEkNf-49" value="&lt;font style=&quot;font-size: 10px;&quot;&gt;spring&lt;/font&gt;" style="ellipse;whiteSpace=wrap;html=1;aspect=fixed;fillColor=#60a917;strokeColor=#2D7600;fontColor=#ffffff;" vertex="1" parent="1">
          <mxGeometry x="803.75" y="730" width="30" height="30" as="geometry" />
        </mxCell>
        <mxCell id="NxydhZxei_qZ2f8yEkNf-50" value="nginx" style="ellipse;whiteSpace=wrap;html=1;aspect=fixed;fillColor=#1ba1e2;strokeColor=#006EAF;fontColor=#ffffff;" vertex="1" parent="1">
          <mxGeometry x="685" y="730" width="30" height="30" as="geometry" />
        </mxCell>
        <mxCell id="NxydhZxei_qZ2f8yEkNf-51" value="nginx" style="ellipse;whiteSpace=wrap;html=1;aspect=fixed;fillColor=#1ba1e2;strokeColor=#006EAF;fontColor=#ffffff;" vertex="1" parent="1">
          <mxGeometry x="725" y="730" width="30" height="30" as="geometry" />
        </mxCell>
        <mxCell id="NxydhZxei_qZ2f8yEkNf-52" value="&lt;span style=&quot;font-size: 10px;&quot;&gt;spring&lt;/span&gt;" style="ellipse;whiteSpace=wrap;html=1;aspect=fixed;fillColor=#60a917;strokeColor=#2D7600;fontColor=#ffffff;" vertex="1" parent="1">
          <mxGeometry x="837.5" y="730" width="30" height="30" as="geometry" />
        </mxCell>
        <mxCell id="NxydhZxei_qZ2f8yEkNf-53" value="&lt;span style=&quot;font-size: 10px;&quot;&gt;spring&lt;/span&gt;" style="ellipse;whiteSpace=wrap;html=1;aspect=fixed;fillColor=#60a917;strokeColor=#2D7600;fontColor=#ffffff;" vertex="1" parent="1">
          <mxGeometry x="875" y="730" width="30" height="30" as="geometry" />
        </mxCell>
      </root>
    </mxGraphModel>
  </diagram>
</mxfile>
